<mxfile host="Electron" agent="Mozilla/5.0 (Windows NT 10.0; Win64; x64) AppleWebKit/537.36 (KHTML, like Gecko) draw.io/26.0.4 Chrome/128.0.6613.186 Electron/32.2.5 Safari/537.36" version="26.0.4">
  <diagram name="Page-1" id="t8-_DBpPEFUomt_SCWv8">
    <mxGraphModel dx="1434" dy="854" grid="1" gridSize="10" guides="1" tooltips="1" connect="1" arrows="1" fold="1" page="1" pageScale="1" pageWidth="827" pageHeight="1169" math="0" shadow="0">
      <root>
        <mxCell id="0" />
        <mxCell id="1" parent="0" />
        <mxCell id="QEC_qPJEDAgDFtnQn_us-1" value="" style="rounded=1;whiteSpace=wrap;html=1;fillColor=none;dashed=1;dashPattern=1 2;" vertex="1" parent="1">
          <mxGeometry x="231" y="410" width="160" height="90" as="geometry" />
        </mxCell>
        <mxCell id="QEC_qPJEDAgDFtnQn_us-2" value="" style="rounded=1;whiteSpace=wrap;html=1;fillColor=none;dashed=1;dashPattern=1 2;" vertex="1" parent="1">
          <mxGeometry x="231" y="330" width="160" height="70" as="geometry" />
        </mxCell>
        <mxCell id="Jx0GhWVrExa3c9ylI0WP-25" value="" style="rounded=1;whiteSpace=wrap;html=1;fillColor=none;dashed=1;dashPattern=1 2;" parent="1" vertex="1">
          <mxGeometry x="50" y="410" width="140" height="90" as="geometry" />
        </mxCell>
        <mxCell id="Jx0GhWVrExa3c9ylI0WP-15" value="" style="rounded=1;whiteSpace=wrap;html=1;dashed=1;dashPattern=1 2;strokeColor=default;align=center;verticalAlign=middle;fontFamily=Helvetica;fontSize=12;fontColor=default;fillColor=none;" parent="1" vertex="1">
          <mxGeometry x="50" y="140" width="350" height="70" as="geometry" />
        </mxCell>
        <mxCell id="Jx0GhWVrExa3c9ylI0WP-11" value="" style="rounded=1;whiteSpace=wrap;html=1;fillColor=none;dashed=1;dashPattern=1 2;" parent="1" vertex="1">
          <mxGeometry x="50" y="330" width="140" height="70" as="geometry" />
        </mxCell>
        <mxCell id="Jx0GhWVrExa3c9ylI0WP-9" value="" style="rounded=1;whiteSpace=wrap;html=1;fillColor=none;dashed=1;dashPattern=1 2;" parent="1" vertex="1">
          <mxGeometry x="50" y="220" width="350" height="70" as="geometry" />
        </mxCell>
        <mxCell id="Jx0GhWVrExa3c9ylI0WP-3" style="edgeStyle=orthogonalEdgeStyle;rounded=0;orthogonalLoop=1;jettySize=auto;html=1;entryX=0.5;entryY=0;entryDx=0;entryDy=0;exitX=0.5;exitY=1;exitDx=0;exitDy=0;" parent="1" source="Jx0GhWVrExa3c9ylI0WP-1" target="Jx0GhWVrExa3c9ylI0WP-2" edge="1">
          <mxGeometry relative="1" as="geometry" />
        </mxCell>
        <mxCell id="Jx0GhWVrExa3c9ylI0WP-1" value="Controller" style="rounded=1;whiteSpace=wrap;html=1;fillColor=#e1d5e7;strokeColor=#9673a6;" parent="1" vertex="1">
          <mxGeometry x="90" y="160" width="120" height="40" as="geometry" />
        </mxCell>
        <mxCell id="Jx0GhWVrExa3c9ylI0WP-5" style="edgeStyle=orthogonalEdgeStyle;rounded=0;orthogonalLoop=1;jettySize=auto;html=1;entryX=0.5;entryY=0;entryDx=0;entryDy=0;exitX=0.5;exitY=1;exitDx=0;exitDy=0;" parent="1" source="Jx0GhWVrExa3c9ylI0WP-2" target="Jx0GhWVrExa3c9ylI0WP-4" edge="1">
          <mxGeometry relative="1" as="geometry" />
        </mxCell>
        <mxCell id="Jx0GhWVrExa3c9ylI0WP-7" style="edgeStyle=orthogonalEdgeStyle;rounded=0;orthogonalLoop=1;jettySize=auto;html=1;entryX=0;entryY=0.5;entryDx=0;entryDy=0;" parent="1" source="Jx0GhWVrExa3c9ylI0WP-2" target="Jx0GhWVrExa3c9ylI0WP-6" edge="1">
          <mxGeometry relative="1" as="geometry" />
        </mxCell>
        <mxCell id="Jx0GhWVrExa3c9ylI0WP-18" style="edgeStyle=orthogonalEdgeStyle;rounded=0;orthogonalLoop=1;jettySize=auto;html=1;entryX=0.5;entryY=0;entryDx=0;entryDy=0;exitX=0.5;exitY=1;exitDx=0;exitDy=0;" parent="1" source="Jx0GhWVrExa3c9ylI0WP-2" target="Jx0GhWVrExa3c9ylI0WP-17" edge="1">
          <mxGeometry relative="1" as="geometry" />
        </mxCell>
        <mxCell id="Jx0GhWVrExa3c9ylI0WP-2" value="Service" style="rounded=1;whiteSpace=wrap;html=1;fillColor=#dae8fc;strokeColor=#6c8ebf;" parent="1" vertex="1">
          <mxGeometry x="90" y="240" width="120" height="40" as="geometry" />
        </mxCell>
        <mxCell id="Jx0GhWVrExa3c9ylI0WP-4" value="Repository" style="rounded=1;whiteSpace=wrap;html=1;fillColor=#ffe6cc;strokeColor=#d79b00;" parent="1" vertex="1">
          <mxGeometry x="60" y="350" width="120" height="40" as="geometry" />
        </mxCell>
        <mxCell id="Jx0GhWVrExa3c9ylI0WP-6" value="Exception" style="rounded=1;whiteSpace=wrap;html=1;fillColor=#f8cecc;strokeColor=#b85450;" parent="1" vertex="1">
          <mxGeometry x="266" y="240" width="90" height="40" as="geometry" />
        </mxCell>
        <mxCell id="Jx0GhWVrExa3c9ylI0WP-10" value="&quot;Business Logic&quot; Layer" style="text;html=1;align=center;verticalAlign=middle;whiteSpace=wrap;rounded=0;" parent="1" vertex="1">
          <mxGeometry x="410" y="245" width="120" height="30" as="geometry" />
        </mxCell>
        <mxCell id="Jx0GhWVrExa3c9ylI0WP-12" value="&quot;Data Abstraction&quot;&lt;br&gt;Layer" style="text;html=1;align=center;verticalAlign=middle;whiteSpace=wrap;rounded=0;" parent="1" vertex="1">
          <mxGeometry x="413" y="350" width="120" height="30" as="geometry" />
        </mxCell>
        <mxCell id="Jx0GhWVrExa3c9ylI0WP-13" value="&lt;div style=&quot;&quot;&gt;this is:&lt;/div&gt;&lt;div style=&quot;&quot;&gt;- either our own exception&lt;/div&gt;&lt;div style=&quot;&quot;&gt;- or exception from the underlying library&lt;/div&gt;&lt;div style=&quot;&quot;&gt;&lt;br&gt;&lt;/div&gt;&lt;span style=&quot;&quot;&gt;Exception should not be tied up&lt;/span&gt;&lt;br style=&quot;&quot;&gt;&lt;span style=&quot;&quot;&gt;with the framework&lt;/span&gt;" style="rounded=0;whiteSpace=wrap;html=1;align=left;spacingTop=5;spacing=10;" parent="1" vertex="1">
          <mxGeometry x="580" y="120" width="240" height="110" as="geometry" />
        </mxCell>
        <mxCell id="Jx0GhWVrExa3c9ylI0WP-14" style="rounded=0;orthogonalLoop=1;jettySize=auto;html=1;entryX=1;entryY=0.25;entryDx=0;entryDy=0;endArrow=none;endFill=0;dashed=1;dashPattern=1 4;" parent="1" source="Jx0GhWVrExa3c9ylI0WP-13" target="Jx0GhWVrExa3c9ylI0WP-6" edge="1">
          <mxGeometry relative="1" as="geometry" />
        </mxCell>
        <mxCell id="Jx0GhWVrExa3c9ylI0WP-16" value="&quot;RESTful API&quot;&lt;br&gt;Layer" style="text;html=1;align=center;verticalAlign=middle;whiteSpace=wrap;rounded=0;" parent="1" vertex="1">
          <mxGeometry x="410" y="165" width="120" height="30" as="geometry" />
        </mxCell>
        <mxCell id="Jx0GhWVrExa3c9ylI0WP-17" value="(file) Storage" style="rounded=1;whiteSpace=wrap;html=1;fillColor=#ffe6cc;strokeColor=#d79b00;" parent="1" vertex="1">
          <mxGeometry x="241" y="350" width="120" height="40" as="geometry" />
        </mxCell>
        <mxCell id="Jx0GhWVrExa3c9ylI0WP-19" value="DB" style="shape=cylinder3;whiteSpace=wrap;html=1;boundedLbl=1;backgroundOutline=1;size=15;" parent="1" vertex="1">
          <mxGeometry x="85" y="430" width="70" height="60" as="geometry" />
        </mxCell>
        <mxCell id="Jx0GhWVrExa3c9ylI0WP-20" style="edgeStyle=orthogonalEdgeStyle;rounded=0;orthogonalLoop=1;jettySize=auto;html=1;entryX=0.5;entryY=0;entryDx=0;entryDy=0;entryPerimeter=0;" parent="1" source="Jx0GhWVrExa3c9ylI0WP-4" target="Jx0GhWVrExa3c9ylI0WP-19" edge="1">
          <mxGeometry relative="1" as="geometry" />
        </mxCell>
        <mxCell id="Jx0GhWVrExa3c9ylI0WP-23" value="Storage&lt;br&gt;Provider" style="shape=cube;whiteSpace=wrap;html=1;boundedLbl=1;backgroundOutline=1;darkOpacity=0.05;darkOpacity2=0.1;" parent="1" vertex="1">
          <mxGeometry x="256" y="430" width="110" height="60" as="geometry" />
        </mxCell>
        <mxCell id="Jx0GhWVrExa3c9ylI0WP-24" style="edgeStyle=orthogonalEdgeStyle;rounded=0;orthogonalLoop=1;jettySize=auto;html=1;entryX=0;entryY=0;entryDx=45;entryDy=0;entryPerimeter=0;" parent="1" source="Jx0GhWVrExa3c9ylI0WP-17" target="Jx0GhWVrExa3c9ylI0WP-23" edge="1">
          <mxGeometry relative="1" as="geometry" />
        </mxCell>
        <mxCell id="Jx0GhWVrExa3c9ylI0WP-26" value="&quot;Data Implemntation&quot;&lt;br&gt;Layer" style="text;html=1;align=center;verticalAlign=middle;whiteSpace=wrap;rounded=0;" parent="1" vertex="1">
          <mxGeometry x="410" y="450" width="120" height="30" as="geometry" />
        </mxCell>
        <mxCell id="Jx0GhWVrExa3c9ylI0WP-27" value="&lt;h1 style=&quot;margin-top: 0px;&quot;&gt;Handling Exceptions with RestControllerAdvice&lt;/h1&gt;&lt;div style=&quot;background-color:#1e1f22;color:#bcbec4&quot;&gt;&lt;pre style=&quot;font-family: &amp;quot;Source Code Pro&amp;quot;, monospace;&quot;&gt;&lt;font style=&quot;font-size: 12px;&quot;&gt;&lt;span style=&quot;color: rgb(179, 174, 96);&quot;&gt;@RestControllerAdvice&lt;br&gt;&lt;/span&gt;&lt;span style=&quot;color: rgb(207, 142, 109);&quot;&gt;public class &lt;/span&gt;TestExceptionHandler &lt;span style=&quot;color: rgb(207, 142, 109);&quot;&gt;extends &lt;/span&gt;GlobalExceptionHandler &lt;span style=&quot;color: rgb(232, 186, 54);&quot;&gt;{&lt;br&gt;&lt;/span&gt;&lt;span style=&quot;color: rgb(232, 186, 54);&quot;&gt;&lt;br&gt;&lt;/span&gt;&lt;span style=&quot;color: rgb(232, 186, 54);&quot;&gt;    &lt;/span&gt;&lt;span style=&quot;color: rgb(179, 174, 96);&quot;&gt;@ExceptionHandler&lt;/span&gt;&lt;span style=&quot;color: rgb(232, 186, 54);&quot;&gt;(&lt;/span&gt;&lt;span style=&quot;color: rgb(84, 168, 87);&quot;&gt;{&lt;/span&gt;TestException.&lt;span style=&quot;color: rgb(207, 142, 109);&quot;&gt;class&lt;/span&gt;&lt;span style=&quot;color: rgb(84, 168, 87);&quot;&gt;}&lt;/span&gt;&lt;span style=&quot;color: rgb(232, 186, 54);&quot;&gt;)&lt;br&gt;&lt;/span&gt;&lt;span style=&quot;color: rgb(232, 186, 54);&quot;&gt;    &lt;/span&gt;&lt;span style=&quot;color: rgb(179, 174, 96);&quot;&gt;@ResponseStatus&lt;/span&gt;&lt;span style=&quot;color: rgb(232, 186, 54);&quot;&gt;(&lt;/span&gt;HttpStatus.&lt;span style=&quot;color: rgb(199, 125, 187); font-style: italic;&quot;&gt;NOT_FOUND&lt;/span&gt;&lt;span style=&quot;color: rgb(232, 186, 54);&quot;&gt;)&lt;br&gt;&lt;/span&gt;&lt;span style=&quot;color: rgb(232, 186, 54);&quot;&gt;    &lt;/span&gt;&lt;span style=&quot;color: rgb(207, 142, 109);&quot;&gt;public &lt;/span&gt;Object &lt;span style=&quot;color: rgb(86, 168, 245);&quot;&gt;handleTestException&lt;/span&gt;&lt;span style=&quot;color: rgb(232, 186, 54);&quot;&gt;(&lt;/span&gt;Exception ex, &lt;br/&gt;                                      HandlerMethod handlerMethod, &lt;br/&gt;                                      HttpServletRequest request&lt;span style=&quot;color: rgb(232, 186, 54);&quot;&gt;) &lt;/span&gt;&lt;span style=&quot;color: rgb(84, 168, 87);&quot;&gt;{&lt;br&gt;&lt;/span&gt;&lt;span style=&quot;color: rgb(84, 168, 87);&quot;&gt;        &lt;/span&gt;&lt;span style=&quot;color: rgb(207, 142, 109);&quot;&gt;return &lt;/span&gt;ErrorResponse.&lt;span style=&quot;font-style: italic;&quot;&gt;builder&lt;/span&gt;&lt;span style=&quot;color: rgb(232, 186, 54);&quot;&gt;()&lt;br&gt;&lt;/span&gt;&lt;span style=&quot;color: rgb(232, 186, 54);&quot;&gt;                &lt;/span&gt;.status&lt;span style=&quot;color: rgb(232, 186, 54);&quot;&gt;(&lt;/span&gt;&lt;span style=&quot;color: rgb(42, 172, 184);&quot;&gt;404&lt;/span&gt;&lt;span style=&quot;color: rgb(232, 186, 54);&quot;&gt;)&lt;br&gt;&lt;/span&gt;&lt;span style=&quot;color: rgb(232, 186, 54);&quot;&gt;                &lt;/span&gt;.error&lt;span style=&quot;color: rgb(232, 186, 54);&quot;&gt;(&lt;/span&gt;ex.getMessage&lt;span style=&quot;color: rgb(84, 168, 87);&quot;&gt;()&lt;/span&gt;&lt;span style=&quot;color: rgb(232, 186, 54);&quot;&gt;)&lt;br&gt;&lt;/span&gt;&lt;span style=&quot;color: rgb(232, 186, 54);&quot;&gt;                &lt;/span&gt;.path&lt;span style=&quot;color: rgb(232, 186, 54);&quot;&gt;(&lt;/span&gt;request.getRequestURI&lt;span style=&quot;color: rgb(84, 168, 87);&quot;&gt;()&lt;/span&gt;&lt;span style=&quot;color: rgb(232, 186, 54);&quot;&gt;)&lt;br&gt;&lt;/span&gt;&lt;span style=&quot;color: rgb(232, 186, 54);&quot;&gt;                &lt;/span&gt;.build&lt;span style=&quot;color: rgb(232, 186, 54);&quot;&gt;()&lt;/span&gt;;&lt;br&gt;    &lt;span style=&quot;color: rgb(84, 168, 87);&quot;&gt;}&lt;br&gt;&lt;/span&gt;&lt;span style=&quot;color: rgb(232, 186, 54);&quot;&gt;}&lt;/span&gt;&lt;/font&gt;&lt;/pre&gt;&lt;/div&gt;" style="text;html=1;whiteSpace=wrap;overflow=hidden;rounded=0;spacingTop=2;spacing=5;" parent="1" vertex="1">
          <mxGeometry x="60" y="560" width="570" height="300" as="geometry" />
        </mxCell>
        <mxCell id="Jx0GhWVrExa3c9ylI0WP-30" style="edgeStyle=orthogonalEdgeStyle;rounded=0;orthogonalLoop=1;jettySize=auto;html=1;entryX=0.5;entryY=0;entryDx=0;entryDy=0;" parent="1" source="Jx0GhWVrExa3c9ylI0WP-29" target="Jx0GhWVrExa3c9ylI0WP-1" edge="1">
          <mxGeometry relative="1" as="geometry" />
        </mxCell>
        <mxCell id="Jx0GhWVrExa3c9ylI0WP-29" value="Client" style="shape=hexagon;perimeter=hexagonPerimeter2;whiteSpace=wrap;html=1;fixedSize=1;" parent="1" vertex="1">
          <mxGeometry x="110" y="50" width="80" height="50" as="geometry" />
        </mxCell>
        <mxCell id="QEC_qPJEDAgDFtnQn_us-3" value="&lt;h1 style=&quot;margin-top: 0px;&quot;&gt;Handling Exceptions with&amp;nbsp;@EnableWebSecurity and &quot;annotated Exceptions&quot;&lt;/h1&gt;&lt;div style=&quot;background-color: rgb(30, 31, 34); color: rgb(188, 190, 196);&quot;&gt;&lt;pre style=&quot;font-family:&#39;Source Code Pro&#39;,monospace;font-size:12.8pt;&quot;&gt;&lt;span style=&quot;color: rgb(179, 174, 96);&quot;&gt;&lt;br&gt;&lt;/span&gt;&lt;/pre&gt;&lt;pre style=&quot;font-family:&#39;Source Code Pro&#39;,monospace;font-size:12.8pt;&quot;&gt;&lt;span style=&quot;color: rgb(179, 174, 96);&quot;&gt;@ResponseStatus&lt;/span&gt;&lt;span style=&quot;color: rgb(232, 186, 54);&quot;&gt;(&lt;/span&gt;HttpStatus.&lt;span style=&quot;color: rgb(199, 125, 187); font-style: italic;&quot;&gt;I_AM_A_TEAPOT&lt;/span&gt;&lt;span style=&quot;color: rgb(232, 186, 54);&quot;&gt;)&lt;br&gt;&lt;/span&gt;&lt;span style=&quot;color: rgb(207, 142, 109);&quot;&gt;public class &lt;/span&gt;AnnotatedBlahException &lt;span style=&quot;color: rgb(207, 142, 109);&quot;&gt;extends &lt;/span&gt;RuntimeException &lt;span style=&quot;color: rgb(232, 186, 54);&quot;&gt;{&lt;br&gt;&lt;/span&gt;&lt;span style=&quot;color: rgb(232, 186, 54);&quot;&gt;    &lt;/span&gt;&lt;span style=&quot;color: rgb(207, 142, 109);&quot;&gt;public &lt;/span&gt;&lt;span style=&quot;color: rgb(86, 168, 245);&quot;&gt;AnnotatedBlahException&lt;/span&gt;&lt;span style=&quot;color: rgb(232, 186, 54);&quot;&gt;(&lt;/span&gt;String message&lt;span style=&quot;color: rgb(232, 186, 54);&quot;&gt;) &lt;/span&gt;&lt;span style=&quot;color: rgb(84, 168, 87);&quot;&gt;{&lt;br&gt;&lt;/span&gt;&lt;span style=&quot;color: rgb(84, 168, 87);&quot;&gt;        &lt;/span&gt;&lt;span style=&quot;color: rgb(207, 142, 109);&quot;&gt;super&lt;/span&gt;&lt;span style=&quot;color: rgb(232, 186, 54);&quot;&gt;(&lt;/span&gt;message&lt;span style=&quot;color: rgb(232, 186, 54);&quot;&gt;)&lt;/span&gt;;&lt;br&gt;    &lt;span style=&quot;color: rgb(84, 168, 87);&quot;&gt;}&lt;br&gt;&lt;/span&gt;&lt;span style=&quot;color: rgb(232, 186, 54);&quot;&gt;}&lt;/span&gt;&lt;/pre&gt;&lt;pre style=&quot;font-family:&#39;Source Code Pro&#39;,monospace;font-size:12.8pt;&quot;&gt;&lt;span style=&quot;color: rgb(232, 186, 54);&quot;&gt;&lt;br&gt;&lt;/span&gt;&lt;/pre&gt;&lt;/div&gt;" style="text;html=1;whiteSpace=wrap;overflow=hidden;rounded=0;" vertex="1" parent="1">
          <mxGeometry x="60" y="860" width="650" height="288" as="geometry" />
        </mxCell>
      </root>
    </mxGraphModel>
  </diagram>
</mxfile>
